<svg version="1.1" id="Layer_1" xmlns="http://www.w3.org/2000/svg" xmlns:xlink="http://www.w3.org/1999/xlink" x="0px" y="0px"
	 width="100%" viewBox="0 0 1024 1024" enable-background="new 0 0 1024 1024" xml:space="preserve">
<path fill="#000000" opacity="1.000000" stroke="none" 
	d="
M444.139374,264.834625 
	C438.169128,257.927795 433.911469,250.479279 431.330292,242.058258 
	C430.166687,238.261917 431.128204,235.429581 434.668030,233.723160 
	C453.857758,224.472412 469.586121,223.157944 485.147369,238.440994 
	C489.995056,243.202011 495.412567,246.369095 501.917633,247.642639 
	C505.720062,248.387070 507.412018,250.445694 508.420105,254.065826 
	C510.979279,263.256042 512.257324,272.659241 513.098816,282.082520 
	C514.545532,298.282715 513.926941,314.695251 518.392273,330.568268 
	C518.465942,330.830322 518.219727,331.182312 517.941467,332.072144 
	C512.867798,328.988281 510.324310,323.895538 506.715393,319.149292 
	C510.252136,338.454254 525.377502,352.828094 546.026123,355.383789 
	C558.746826,356.958221 570.644714,360.774017 582.370361,365.392792 
	C591.351990,368.930664 599.957458,368.092102 608.604858,364.724487 
	C614.392578,362.470551 616.912537,358.001465 617.158020,352.106903 
	C615.597961,350.886139 614.025391,351.476562 612.581421,351.254791 
	C606.778809,350.363617 602.904053,347.031830 600.781860,341.674805 
	C599.391418,338.164917 598.711609,334.467010 601.239990,331.205322 
	C603.869995,327.812592 607.489990,328.851227 610.928833,329.666840 
	C617.044067,331.117249 622.703674,334.548828 629.278503,333.970367 
	C631.326050,333.790192 633.664612,334.398529 635.183105,332.328857 
	C635.158875,329.577332 631.539429,329.321503 631.446777,326.704163 
	C641.073181,326.789062 647.852600,336.215149 644.657288,345.864960 
	C642.898132,351.177612 641.938599,356.304932 642.121948,361.910797 
	C642.317688,367.896729 639.456665,373.138031 633.548828,374.634125 
	C625.022217,376.793335 617.151794,381.036621 608.220642,381.915833 
	C600.168335,382.708588 592.676331,381.810089 585.618958,377.643463 
	C571.253601,369.162262 554.011169,372.485077 543.471863,385.699005 
	C534.432312,397.032532 530.393311,410.213531 529.232300,424.459229 
	C528.915710,428.344727 529.748901,432.356506 528.046143,437.076111 
	C516.617981,427.091858 507.125824,416.461761 500.088837,403.684387 
	C493.024872,390.858124 489.295929,377.121521 488.732330,362.401611 
	C480.413574,381.286652 480.977722,400.418793 487.329803,421.208435 
	C460.122009,410.216919 433.965088,401.678162 407.195831,395.076874 
	C380.595001,388.517181 353.532104,384.823761 324.890717,382.730988 
	C330.165314,375.618805 334.727875,369.972351 340.194458,365.152954 
	C353.112762,353.763947 367.564789,345.484528 384.509369,341.098663 
	C406.796021,335.330078 424.490417,321.824738 439.858337,305.078583 
	C445.325287,299.121399 450.679291,293.065094 455.195099,286.288330 
	C455.638458,286.559509 456.081848,286.830688 456.525208,287.101837 
	C450.483032,299.315155 444.210022,311.421051 438.462982,323.771698 
	C432.591827,336.388977 428.630920,349.560669 429.903931,363.912506 
	C430.477997,361.693787 431.072266,359.480042 431.622986,357.255524 
	C436.398743,337.964935 446.375732,321.333496 457.952423,305.493256 
	C462.864624,298.772003 467.877777,292.093750 471.638550,284.620331 
	C472.624695,282.660645 474.112427,281.669678 476.081024,280.951569 
	C480.880951,279.200623 485.658051,277.362640 489.832031,273.569519 
	C473.038910,278.864532 457.179382,279.712616 444.139374,264.834625 
z"/>
<path fill="#000000" opacity="1.000000" stroke="none" 
	d="
M467.363342,524.267517 
	C489.449341,517.537231 509.204315,506.865509 528.286377,494.871948 
	C585.272095,459.054810 646.938904,435.636078 713.343140,424.676727 
	C747.269165,419.077576 781.403137,416.394836 815.783630,417.873749 
	C830.209778,418.494293 844.505981,420.533539 859.176880,423.107941 
	C857.823181,425.600037 855.866150,424.948730 854.275452,424.944794 
	C827.589722,424.878998 801.059814,426.795654 774.740417,431.263702 
	C724.724731,439.754486 677.656494,455.787415 636.096375,485.781433 
	C632.492493,488.382385 628.314697,490.249969 625.112976,493.951904 
	C627.068665,495.457581 629.110718,494.876221 630.956055,494.904724 
	C636.452698,494.989655 641.953735,494.814056 647.449707,494.917206 
	C651.669189,494.996429 655.768921,495.208374 658.425232,490.896484 
	C658.950562,490.043640 660.429932,489.227142 661.407898,489.293884 
	C667.813782,489.731140 671.183411,484.915222 675.328064,481.495575 
	C696.518860,464.011780 721.393555,454.503082 747.623962,447.825043 
	C765.936523,443.162781 784.697388,441.722809 803.388184,439.764221 
	C806.110291,439.478943 808.888000,439.724609 811.644958,440.199402 
	C805.598877,443.229004 798.999756,442.206604 792.711609,443.253296 
	C760.212646,448.662750 728.404602,456.155396 699.321533,472.427612 
	C690.416443,477.410126 682.334900,483.551147 674.696899,490.289917 
	C672.786621,491.975281 671.462646,493.806671 671.303040,496.642212 
	C671.044556,501.234894 666.856628,504.626801 662.654114,503.015015 
	C654.982849,500.072876 647.168457,501.615967 639.433350,501.120880 
	C636.116760,500.908600 632.768372,501.248962 629.440430,501.144897 
	C625.063965,501.008057 621.076111,501.057220 617.865234,505.090668 
	C615.710449,507.797424 611.934570,508.600342 608.668213,507.098450 
	C605.662354,505.716248 603.427490,506.347382 600.785583,507.784180 
	C571.902039,523.492249 540.676270,530.758301 508.159821,533.424316 
	C483.371033,535.456726 458.605377,535.194031 433.842621,533.105347 
	C432.277802,532.973328 430.471008,533.275574 429.111908,530.965942 
	C442.261292,530.515564 454.724640,527.995789 467.363342,524.267517 
M614.659241,500.055939 
	C616.110229,498.050995 615.283447,496.606079 613.434082,495.555328 
	C612.344849,494.936401 611.174866,495.030640 610.191833,495.920135 
	C609.158264,496.855408 609.193420,498.000000 609.782898,499.109680 
	C610.774841,500.977142 612.127686,501.948334 614.659241,500.055939 
z"/>
<path fill="#000000" opacity="1.000000" stroke="none" 
	d="
M424.862610,506.057617 
	C439.476685,511.601990 454.469147,512.253601 469.614929,512.738037 
	C462.832092,517.064087 455.442719,518.791016 448.032227,520.257080 
	C426.262115,524.564087 404.582703,522.872375 383.171051,518.055298 
	C318.134338,503.423706 264.902802,469.430145 221.943054,418.840668 
	C220.904022,417.617157 219.445663,416.586945 219.435196,413.445038 
	C316.868988,422.368896 406.589966,453.609985 491.991028,502.601990 
	C483.647247,507.112030 475.904175,507.653168 468.220245,508.308197 
	C438.250031,510.863037 412.333740,500.365753 390.032227,481.557373 
	C379.183411,472.407837 367.498932,469.112793 354.210785,468.334564 
	C349.896606,468.081909 345.602875,467.481537 341.288757,467.227692 
	C335.929535,466.912415 331.183197,466.821777 329.190186,459.863098 
	C327.689697,454.624146 320.337738,452.086639 314.941101,453.272217 
	C308.906250,454.598022 304.875458,459.055847 304.339142,464.997314 
	C303.778442,471.208435 307.076599,476.611145 312.802246,478.860687 
	C317.822266,480.833008 325.173126,479.058960 328.436981,474.164368 
	C330.589600,470.936310 332.937561,470.316406 336.337372,470.658783 
	C348.084381,471.841766 359.843658,472.903076 371.599274,473.999969 
	C372.958527,474.126801 374.189209,474.528229 375.300140,475.344666 
	C384.020721,481.753540 392.752991,488.146484 401.465424,494.566406 
	C401.834473,494.838348 402.043549,495.327484 402.329651,495.718872 
	C397.781189,498.794861 388.330170,498.246887 384.759338,494.764099 
	C381.542572,491.626617 377.912323,491.483185 375.117523,494.517456 
	C372.388336,497.480499 372.627808,500.576721 375.265625,503.429718 
	C378.144592,506.543549 381.459381,506.434296 384.655243,502.624634 
	C386.657715,500.237549 388.863800,499.855042 391.642761,499.774414 
	C396.605286,499.630493 401.627716,500.445251 406.526886,498.876404 
	C408.235596,498.329224 409.733917,499.399170 411.253357,500.076965 
	C415.659698,502.042572 420.085815,503.963806 424.862610,506.057617 
z"/>
<path fill="#000000" opacity="1.000000" stroke="none" 
	d="
M405.342834,449.741821 
	C339.816986,424.306976 272.621857,407.710571 202.641205,402.247986 
	C233.028366,394.854279 263.856567,391.763855 294.965790,392.099701 
	C386.287506,393.085571 470.283264,419.470520 548.564575,465.047546 
	C548.070068,467.419373 546.897583,467.821594 545.908386,468.362457 
	C531.583740,476.194794 517.594788,484.595459 503.868225,493.424255 
	C501.252045,495.106873 499.230408,495.044037 496.592834,493.479553 
	C467.583374,476.272308 436.788818,462.767975 405.342834,449.741821 
z"/>
<path fill="#000000" opacity="1.000000" stroke="none" 
	d="
M695.506287,745.622314 
	C663.797058,754.889465 632.347900,763.485901 600.098633,768.843750 
	C561.807373,775.205383 523.310791,777.101074 484.619781,774.140930 
	C440.262329,770.747192 397.320496,760.211914 354.705536,748.015259 
	C334.896210,742.345825 315.288879,735.762268 294.590149,733.696838 
	C289.775421,733.216431 284.800446,734.112244 279.468628,732.499512 
	C281.317993,730.332642 283.230469,730.725647 284.917542,730.772888 
	C314.041321,731.588318 343.140015,732.811157 372.166138,735.513000 
	C402.969818,738.380249 433.811951,740.842407 464.603363,743.830994 
	C484.995026,745.810120 505.450287,746.944092 525.885620,747.313293 
	C547.145874,747.697327 568.440857,746.855103 589.691711,745.104919 
	C609.417786,743.480469 629.112610,741.588806 648.807861,739.665100 
	C668.504150,737.741272 688.184021,735.600769 707.909302,734.036865 
	C726.482544,732.564270 745.089172,731.381470 763.737366,731.248718 
	C764.123413,731.246033 764.513000,731.733521 764.971802,732.608154 
	C741.146301,732.920349 718.456787,738.887878 695.506287,745.622314 
z"/>
<path fill="#000000" opacity="1.000000" stroke="none" 
	d="
M418.964783,598.049316 
	C422.599731,600.136902 425.959717,601.979248 429.261444,603.920715 
	C437.386383,608.698364 441.934113,615.545959 441.311768,625.256653 
	C440.728485,634.357544 435.520599,640.432312 427.769623,644.209290 
	C414.446228,650.701721 400.703156,650.105347 387.053314,645.190796 
	C384.221405,644.171204 382.199219,643.679443 379.376495,645.593811 
	C375.188538,648.433899 370.280365,649.327087 365.069427,648.659790 
	C355.411469,647.423096 350.979736,641.276184 352.215942,630.339111 
	C353.295074,620.791443 355.767853,611.408508 357.347565,601.906677 
	C357.977478,598.117798 359.689178,593.429260 355.178833,591.036682 
	C350.543793,588.577881 346.554535,591.191162 343.103760,594.459045 
	C335.386017,601.767822 332.951721,611.346191 331.331055,621.346313 
	C330.214020,628.238831 328.576843,635.050659 327.574982,641.956909 
	C326.983948,646.031128 324.835571,647.184021 321.132965,647.166382 
	C316.472260,647.144165 311.802338,647.290100 307.151398,647.593445 
	C303.847351,647.808899 302.508026,646.831116 303.196198,643.313416 
	C307.375336,621.951355 311.476227,600.573853 315.536865,579.188965 
	C315.902740,577.262085 316.453461,575.566589 318.323395,574.778137 
	C323.937714,572.410950 329.832550,571.496094 335.896484,571.852905 
	C338.353577,571.997498 339.299744,573.593262 339.142395,575.979858 
	C339.023834,577.777100 337.994843,579.496521 338.763428,581.682190 
	C340.919464,581.076477 342.177490,579.247864 343.847168,578.073059 
	C351.296082,572.831848 359.215790,569.482239 368.610504,571.546875 
	C377.169983,573.427856 382.052673,579.268311 382.370850,588.128052 
	C382.795532,599.952820 378.696808,611.058228 376.881866,622.526367 
	C376.566589,624.518494 376.040131,626.485291 376.557861,628.437378 
	C377.202911,630.869507 378.747070,632.321289 381.450134,632.735107 
	C384.006195,633.126465 385.592407,632.432190 386.550751,630.045410 
	C388.110931,626.159790 390.479462,625.120361 394.300446,627.512817 
	C398.023132,629.843628 402.362946,630.668396 406.649445,631.257263 
	C410.679810,631.810852 414.734314,631.025879 416.248596,626.824402 
	C417.680237,622.852295 414.228455,620.892334 411.347717,619.166077 
	C408.351135,617.370422 405.226105,615.790649 402.186707,614.064575 
	C386.788727,605.320312 389.089264,585.238098 401.209076,577.394714 
	C414.569214,568.748718 428.848694,569.050293 443.303680,574.640808 
	C444.588562,575.137817 445.923004,575.998047 445.752747,577.477539 
	C445.199097,582.288452 443.894165,586.963440 441.809753,591.314331 
	C440.862579,593.291321 438.919250,592.223755 437.399902,591.520752 
	C433.761902,589.837341 430.065491,588.429382 426.012360,588.000244 
	C424.303253,587.819214 422.702301,588.027222 421.065735,588.280518 
	C418.609009,588.660889 416.531982,589.775391 415.676758,592.179504 
	C414.684113,594.969788 416.746735,596.437012 418.964783,598.049316 
z"/>
<path fill="#000000" opacity="1.000000" stroke="none" 
	d="
M635.754822,402.615540 
	C654.447693,398.121582 672.968201,395.346771 691.703430,393.546234 
	C719.864868,390.839783 747.868958,392.404022 775.798950,395.824219 
	C793.638550,398.008759 811.156555,402.036316 828.284973,407.599609 
	C829.067322,407.853760 829.916565,407.967438 830.372925,409.373291 
	C828.644958,410.761230 826.739746,409.301147 824.998291,409.369263 
	C823.175659,409.440552 821.336182,409.273254 819.513062,409.109741 
	C793.765686,406.800568 768.048279,406.657440 742.266602,409.041718 
	C705.849792,412.409546 670.210327,419.466217 635.317993,430.326111 
	C612.880188,437.309662 591.021790,445.827271 569.912903,456.170990 
	C565.957703,458.109131 562.788635,458.412628 558.826660,455.964050 
	C552.183228,451.858215 545.095520,448.475128 538.239380,444.706818 
	C536.414673,443.703857 534.235168,443.096191 532.626709,440.156158 
	C565.496765,423.518402 599.602234,410.919006 635.754822,402.615540 
z"/>
<path fill="#000000" opacity="1.000000" stroke="none" 
	d="
M166.892349,628.159729 
	C175.473465,631.701294 183.833481,633.141785 192.531250,630.082703 
	C197.421173,628.362732 201.046265,625.476379 201.851212,620.056763 
	C202.629700,614.815308 199.538895,611.385071 195.593033,609.002747 
	C190.043716,605.652405 184.085587,602.987793 178.409882,599.836121 
	C170.194183,595.273987 163.186768,589.484802 160.734802,579.860229 
	C157.513626,567.216248 162.342377,554.633057 173.501572,546.557556 
	C185.628036,537.782104 199.500046,535.932190 213.934204,537.079224 
	C221.406693,537.673035 228.731689,539.242310 235.742508,542.125061 
	C239.821960,543.802429 241.045120,546.393433 239.201080,550.383362 
	C237.384796,554.313293 235.473953,558.200012 233.696838,562.147217 
	C232.207153,565.455933 230.128571,566.159912 226.954163,564.249084 
	C220.392044,560.298889 213.222656,558.305481 205.564209,558.364197 
	C203.264130,558.381836 200.912445,558.768799 198.682251,559.357422 
	C193.720108,560.666931 189.626801,563.274231 188.887161,568.791443 
	C188.174637,574.106506 191.884750,576.973328 195.934525,579.231445 
	C202.330917,582.797852 209.034180,585.851318 215.243744,589.707764 
	C229.002518,598.252563 234.121597,610.469421 230.084381,625.021057 
	C227.093811,635.800171 219.826569,643.507080 209.926682,647.972595 
	C188.772476,657.514404 167.794250,655.388855 147.297028,645.338928 
	C143.796219,643.622437 142.740967,641.048218 144.619781,637.584778 
	C146.999939,633.197205 149.482193,628.862915 152.009155,624.557739 
	C153.584641,621.873596 155.670639,621.580200 158.312424,623.284851 
	C160.965942,624.997009 163.796188,626.435242 166.892349,628.159729 
z"/>
<path fill="#000000" opacity="1.000000" stroke="none" 
	d="
M867.849792,626.351440 
	C866.930176,629.783813 868.212463,631.945618 870.753357,633.431274 
	C872.533447,634.472229 875.362488,634.747803 874.277832,637.813354 
	C873.068726,641.230530 873.688293,645.553284 869.082764,647.343811 
	C857.244263,651.946350 848.513062,647.615417 845.177124,634.883850 
	C842.209106,637.418823 839.490601,640.003296 836.506714,642.232544 
	C830.924438,646.403320 824.690125,649.390747 817.593567,648.872070 
	C807.141113,648.107910 800.087097,641.796326 798.233032,630.477539 
	C793.910889,604.090820 809.574219,579.583557 833.376404,574.492737 
	C838.971130,573.296143 844.619202,572.865173 850.091797,574.922852 
	C853.234802,576.104614 854.324402,574.867554 854.844788,571.995972 
	C856.443237,563.175415 858.289490,554.396667 859.721436,545.550293 
	C860.384766,541.452332 861.874817,539.347656 866.435608,539.467224 
	C870.894958,539.584106 875.383240,538.907776 879.846619,538.458191 
	C883.169922,538.123474 884.285156,539.037964 883.580383,542.668945 
	C878.862366,566.974792 874.344360,591.319458 869.774109,615.653931 
	C869.129761,619.084900 868.554626,622.528870 867.849792,626.351440 
M839.505798,622.003418 
	C846.107727,614.229675 848.752808,604.839233 850.576050,595.091064 
	C851.373474,590.827332 848.641113,589.217407 845.388000,588.593750 
	C838.551453,587.283142 832.277100,588.815796 827.821411,594.421814 
	C821.976074,601.776123 819.880493,610.479126 820.534973,619.732605 
	C820.810913,623.634827 822.379028,627.303772 826.487244,628.867310 
	C830.355835,630.339539 833.156555,627.828125 835.944824,625.782166 
	C837.130859,624.911865 838.021545,623.639160 839.505798,622.003418 
z"/>
<path fill="#000000" opacity="1.000000" stroke="none" 
	d="
M591.916138,542.676270 
	C599.663452,542.666626 606.579102,544.433594 613.358704,546.829956 
	C616.761108,548.032654 618.045227,550.210754 616.609253,553.836792 
	C615.324402,557.081177 614.216248,560.414978 613.307129,563.784119 
	C612.158691,568.040100 609.989319,568.437866 606.368896,566.430237 
	C596.726807,561.083313 586.588684,559.852234 575.995911,563.327271 
	C561.573792,568.058350 551.202087,581.834412 550.386841,597.675049 
	C550.182190,601.651367 550.007874,605.752686 550.721191,609.630676 
	C553.304077,623.674316 565.258911,631.732788 579.479980,629.381836 
	C585.736328,628.347534 591.811890,626.672668 597.781189,624.504333 
	C602.223389,622.890747 603.232788,623.868286 602.382690,628.561951 
	C601.701233,632.323975 600.822815,636.050476 600.149597,639.813721 
	C599.749878,642.048279 598.442017,643.378113 596.424133,644.090759 
	C581.506592,649.359314 566.369263,651.589661 550.894653,646.762756 
	C534.867798,641.763611 526.043457,630.370667 523.848999,614.119812 
	C519.311157,580.515320 538.393494,552.644287 571.096191,544.404602 
	C577.779236,542.720703 584.588257,542.490845 591.916138,542.676270 
z"/>
<path fill="#000000" opacity="1.000000" stroke="none" 
	d="
M770.940308,599.171997 
	C772.256287,592.396790 773.673279,586.067017 774.606201,579.666687 
	C775.132019,576.059265 776.904236,574.849670 780.270569,574.921753 
	C784.429688,575.010925 788.603821,575.096313 792.750916,574.844788 
	C796.361023,574.625854 797.468689,575.642456 796.714783,579.419312 
	C793.852905,593.756531 791.217285,608.140137 788.624023,622.529236 
	C787.727539,627.502991 786.625000,632.780212 793.776550,634.388000 
	C794.585876,634.569946 795.132751,635.154419 795.338379,636.113953 
	C796.170410,639.995300 792.080505,646.839417 788.210083,647.919983 
	C777.263245,650.976318 771.715881,648.319153 765.612915,637.053223 
	C763.480774,637.479919 762.471924,639.375244 761.045410,640.677429 
	C755.114746,646.091125 748.133118,649.020081 740.155151,648.752441 
	C726.328430,648.288452 718.623230,638.678406 721.036072,624.823486 
	C723.685669,609.609497 726.833923,594.482727 729.544556,579.278687 
	C730.148804,575.889648 731.828064,574.823669 734.937927,574.847107 
	C739.264648,574.879700 743.608521,574.976562 747.915100,574.650513 
	C751.654663,574.367371 752.580017,575.578857 751.881165,579.231689 
	C749.166199,593.423340 746.755554,607.673035 744.059814,621.868530 
	C743.477966,624.932556 743.617859,627.548340 746.195862,629.486572 
	C748.878174,631.503235 751.854919,631.210266 754.723938,629.892029 
	C760.819763,627.090942 764.652283,622.204590 766.947327,616.052612 
	C768.930420,610.736816 769.868469,605.153931 770.940308,599.171997 
z"/>
<path fill="#000000" opacity="1.000000" stroke="none" 
	d="
M499.732941,571.824829 
	C508.166260,574.401428 514.235779,578.896240 515.256653,587.872620 
	C516.407593,597.993103 512.482544,605.775452 503.528320,610.754456 
	C495.360443,615.296265 486.427856,616.985046 477.178406,617.367615 
	C474.783722,617.466736 471.631989,616.663208 470.597076,619.570923 
	C469.426788,622.859009 471.168518,625.785400 473.657257,627.980103 
	C478.336914,632.106934 483.919495,631.300964 489.325989,630.232544 
	C494.415558,629.226685 499.039093,626.840088 503.579132,624.356445 
	C504.979980,623.590210 506.401550,621.900940 508.070404,623.047607 
	C510.091919,624.436646 508.422974,626.423950 508.181305,628.097656 
	C505.349243,647.711853 495.182922,648.766418 475.223541,648.478760 
	C450.653107,648.124634 441.861877,627.337280 447.285645,605.391418 
	C453.026459,582.162598 477.044189,566.717712 499.732941,571.824829 
M473.652954,603.555420 
	C480.480530,603.973938 486.491150,602.050842 491.159271,596.941650 
	C493.080841,594.838501 493.612305,592.117737 491.800903,589.598267 
	C490.120300,587.260681 487.742096,586.880127 485.133301,588.036682 
	C478.500610,590.977173 474.071167,595.676636 473.652954,603.555420 
z"/>
<path fill="#000000" opacity="1.000000" stroke="none" 
	d="
M298.844513,606.844482 
	C287.512054,616.333740 274.132965,617.525574 260.623016,617.555664 
	C259.449402,624.585999 263.091095,629.753601 269.688477,630.740906 
	C277.133209,631.854980 283.827301,629.481140 290.238190,626.005615 
	C292.535126,624.760376 294.713623,623.199890 297.456818,623.114746 
	C299.477264,632.290894 294.143951,642.367981 285.957184,645.432434 
	C277.356018,648.652161 268.528412,649.775391 259.485809,648.017700 
	C243.110855,644.834717 234.405228,632.070801 235.741852,613.465454 
	C237.166290,593.637695 250.976166,577.153931 270.263916,572.260986 
	C276.831635,570.594849 283.445862,570.524536 290.012085,572.080750 
	C306.258820,575.931274 310.804993,593.298279 298.844513,606.844482 
M263.739410,599.154968 
	C263.418549,600.671143 261.836914,601.970032 262.993774,603.942749 
	C269.480865,603.988281 275.435547,602.348450 280.365326,597.950256 
	C282.945496,595.648376 284.087036,592.508240 281.975311,589.466797 
	C279.946442,586.544800 276.834259,586.935181 273.868256,588.282043 
	C269.235352,590.385864 266.355804,594.172363 263.739410,599.154968 
z"/>
<path fill="#000000" opacity="1.000000" stroke="none" 
	d="
M661.421753,581.340454 
	C673.875183,572.623840 687.013977,570.781311 701.000854,575.632874 
	C710.170166,578.813416 715.838806,585.599487 717.018494,594.967163 
	C719.164490,612.008118 715.521484,627.607483 701.633179,639.082031 
	C689.100586,649.436523 674.830505,651.996643 659.633972,645.754333 
	C648.324646,641.108704 642.330383,628.731689 643.917969,614.106262 
	C645.335266,601.049194 650.414124,589.771790 661.421753,581.340454 
M689.552979,589.950439 
	C682.021790,587.506165 675.499695,590.475037 671.229492,598.569580 
	C667.561707,605.522095 666.666870,613.072998 667.137939,620.816528 
	C667.540527,627.436707 669.988892,631.127075 674.668762,632.405518 
	C679.620789,633.758240 684.903015,631.566711 688.444092,626.594910 
	C693.668152,619.260010 695.313354,610.758972 695.437317,602.074280 
	C695.499390,597.724243 694.609558,593.028076 689.552979,589.950439 
z"/>
<path fill="#000000" opacity="1.000000" stroke="none" 
	d="
M546.404419,216.423859 
	C550.237793,218.845230 553.821899,220.974167 557.226807,223.358871 
	C561.253479,226.179062 565.610474,228.359390 570.400696,229.129044 
	C581.309082,230.881653 588.743713,237.105911 594.290771,246.277618 
	C598.234741,252.798599 598.454773,252.911667 605.752930,250.274567 
	C621.768677,244.487457 635.803528,248.470779 648.801147,258.415436 
	C652.164795,260.989014 653.566956,264.303619 651.615845,268.029175 
	C645.180237,280.317352 636.828186,290.548248 622.353577,293.887726 
	C618.530884,294.769684 614.829590,293.553528 610.234741,293.674194 
	C614.304321,302.774475 620.452942,309.981415 625.518738,318.219727 
	C624.319885,318.490021 623.680847,318.831146 623.464783,318.654572 
	C612.023987,309.309021 603.417480,298.291321 602.749084,282.747955 
	C602.678894,281.114685 603.105286,279.447784 603.396851,277.813507 
	C604.341919,272.515564 603.636597,267.588226 600.614990,262.996002 
	C596.769531,257.151581 592.837341,251.380676 588.705505,245.728073 
	C585.280029,241.041718 580.872986,238.747162 575.239380,238.336838 
	C566.531982,237.702682 558.576416,234.745621 551.728333,229.460556 
	C541.661438,221.691330 530.232239,221.315216 518.424438,222.474579 
	C515.317810,222.779633 512.586792,224.325623 510.967133,227.009460 
	C508.143860,231.687714 503.844604,233.685516 498.774292,234.763367 
	C494.600464,235.650620 490.489075,236.831604 486.539764,237.834244 
	C485.132904,236.119949 485.922791,234.976288 486.567047,233.806656 
	C498.404053,212.316849 520.297546,204.919678 542.898682,214.781723 
	C543.967102,215.247910 545.017151,215.756027 546.404419,216.423859 
z"/>
<path fill="#000000" opacity="1.000000" stroke="none" 
	d="
M622.421143,563.507935 
	C623.678223,556.386108 624.789490,549.673706 626.009521,542.981079 
	C626.357056,541.074768 627.319397,539.595398 629.603088,539.487732 
	C634.410522,539.261047 639.216492,538.994385 644.019226,538.684082 
	C647.690735,538.446960 648.698792,540.141846 648.036072,543.575073 
	C643.945618,564.766357 639.930786,585.972229 635.884460,607.171936 
	C634.764221,613.040894 633.550293,618.892944 632.512390,624.776245 
	C631.628479,629.786682 633.276978,632.203186 638.565430,632.954895 
	C642.168091,633.466858 642.915527,635.029358 642.163086,638.338135 
	C640.453674,645.855164 634.072876,649.930786 624.955627,649.069336 
	C613.532776,647.989990 608.132996,640.859375 610.217590,629.499939 
	C614.229553,607.637695 618.281311,585.782837 622.421143,563.507935 
z"/>
<path fill="#000000" opacity="1.000000" stroke="none" 
	d="
M431.263550,266.822449 
	C405.650024,275.956818 382.074585,288.159729 360.946533,304.836975 
	C336.434326,324.185516 316.780762,347.667938 301.700073,375.002319 
	C296.570343,384.300171 295.372467,384.808289 284.303925,382.889679 
	C283.421844,381.082092 284.629517,379.674561 285.345947,378.259857 
	C311.433502,326.747040 350.549408,288.722473 403.157715,264.751709 
	C409.208801,261.994568 415.473114,259.692413 421.693848,257.324493 
	C427.078430,255.274841 432.423187,260.386261 431.263550,266.822449 
z"/>
<path fill="#000000" opacity="1.000000" stroke="none" 
	d="
M740.950195,361.138458 
	C745.182129,368.496094 749.214966,375.549072 752.397888,383.077515 
	C744.702881,385.909180 740.630188,384.666992 736.838318,378.161652 
	C721.415710,351.702789 702.542664,328.193726 678.242493,309.306976 
	C670.479797,303.273590 662.595276,297.402252 654.106689,292.396332 
	C652.272949,291.314941 650.339783,290.320496 649.105896,288.494843 
	C650.222046,285.538544 652.613586,283.807495 654.172424,281.481628 
	C655.763062,279.108124 657.457520,279.410736 659.672058,280.772552 
	C680.685120,293.694214 699.421143,309.316833 715.912964,327.663330 
	C725.189575,337.983063 733.279236,349.172546 740.950195,361.138458 
z"/>
<path fill="#000000" opacity="1.000000" stroke="none" 
	d="
M747.617554,471.702026 
	C751.544250,472.086761 752.799866,469.462189 754.500610,467.158508 
	C756.962036,463.824646 760.366272,462.291870 764.561096,463.399841 
	C768.783752,464.515167 771.646240,467.062256 772.241333,471.571991 
	C772.791809,475.743744 771.512512,479.231323 767.625793,481.237152 
	C763.802490,483.210236 759.431091,483.634613 756.450256,480.460632 
	C752.993530,476.779907 749.110168,477.052124 745.025085,477.459839 
	C739.568604,478.004425 734.150818,478.927155 728.706360,479.606537 
	C725.970032,479.947998 723.748901,481.036469 721.640991,482.891449 
	C716.646545,487.286835 711.440735,491.443359 706.290405,495.659943 
	C704.049011,497.494995 702.440491,499.419128 702.103088,502.631561 
	C701.632690,507.110870 697.592285,509.778564 693.104065,509.324951 
	C689.227600,508.933167 686.379700,505.480103 686.488403,501.303497 
	C686.610413,496.615326 689.471008,493.607330 694.472107,493.716156 
	C697.598877,493.784241 699.878662,492.668365 702.095520,490.768158 
	C704.749084,488.493652 707.830811,486.633820 710.153564,484.073944 
	C717.342529,476.150726 726.397705,473.072784 736.778259,472.775360 
	C740.258179,472.675659 743.724060,472.085419 747.617554,471.702026 
M762.399048,475.682129 
	C764.454163,475.354279 765.821167,474.353821 765.393311,472.076019 
	C765.156982,470.817932 764.068359,470.274017 762.823914,470.168671 
	C761.370850,470.045654 760.135803,470.552185 759.642273,471.942780 
	C758.975098,473.822266 759.721191,475.125031 762.399048,475.682129 
z"/>
<path fill="#000000" opacity="1.000000" stroke="none" 
	d="
M553.343994,271.720764 
	C557.047363,277.365387 560.844849,282.577698 561.945618,289.165009 
	C561.250977,289.300812 560.801758,289.519104 560.668640,289.395905 
	C554.619263,283.796600 547.880493,280.637512 539.241760,280.771210 
	C534.053040,280.851532 530.078796,277.097778 528.454834,271.785583 
	C527.679504,269.249451 526.275574,267.076508 524.573914,264.971100 
	C535.868286,260.739685 546.462646,263.237762 553.343994,271.720764 
z"/>
<path fill="#000000" opacity="1.000000" stroke="none" 
	d="
M417.286804,706.099976 
	C413.444427,706.867981 411.270020,705.127808 409.523865,702.371094 
	C408.558563,700.847229 407.541229,699.166443 405.280212,699.471497 
	C402.929657,699.788696 403.221893,701.735901 403.012329,703.314453 
	C402.705963,705.622131 401.318146,706.291443 399.171356,706.207825 
	C397.027863,706.124207 396.147827,704.885132 396.168427,703.014099 
	C396.241547,696.366699 396.417297,689.720459 396.574860,683.074158 
	C396.614349,681.408813 397.644012,680.735229 399.185181,680.741577 
	C403.174438,680.758057 407.217804,680.402405 411.140289,680.931396 
	C417.338806,681.767456 421.117462,688.956360 417.685120,694.251465 
	C415.284973,697.954224 415.554688,700.439026 417.961304,703.490417 
	C418.582855,704.278564 418.879028,705.313049 417.286804,706.099976 
M408.695312,686.579590 
	C406.707275,686.554016 404.146362,685.311707 403.437866,688.398621 
	C403.061646,690.037720 402.501709,692.329773 404.549774,693.241821 
	C406.694458,694.196899 409.201111,694.155762 410.856232,692.092834 
	C412.623474,689.890076 411.554108,688.150085 408.695312,686.579590 
z"/>
<path fill="#000000" opacity="1.000000" stroke="none" 
	d="
M492.618530,683.039673 
	C492.700592,682.454895 492.698364,682.224487 492.805969,682.147278 
	C499.687164,677.212891 514.180298,681.011414 517.351135,688.570435 
	C520.539551,696.171387 516.565918,703.405762 507.985260,705.621765 
	C495.380341,708.877258 492.658936,706.889099 492.650574,694.441895 
	C492.648102,690.783142 492.608215,687.124329 492.618530,683.039673 
M499.127991,691.694092 
	C499.144867,699.731689 501.614380,702.084656 507.398651,699.359558 
	C510.531464,697.883606 512.338562,695.155212 511.350525,691.683533 
	C510.192017,687.612854 506.827515,686.401917 502.836823,686.309143 
	C499.509583,686.231812 499.049103,688.220947 499.127991,691.694092 
z"/>
<path fill="#000000" opacity="1.000000" stroke="none" 
	d="
M601.758667,693.990356 
	C601.756958,692.999878 601.684875,692.490417 601.766479,692.006897 
	C602.375977,688.393005 599.743225,682.913757 603.433289,681.487061 
	C608.458862,679.544006 614.595459,679.535706 619.858948,682.284424 
	C624.174805,684.538269 625.654968,689.078003 623.781006,692.920044 
	C621.544861,697.504700 620.383789,701.230896 625.156433,705.192627 
	C620.557739,707.015137 617.851196,706.432251 615.783508,703.000366 
	C614.712646,701.223022 613.714478,699.056030 610.936951,699.445862 
	C608.067017,699.848694 608.575256,702.189087 608.264404,704.052429 
	C607.932495,706.042358 606.471313,706.183533 604.902283,706.141724 
	C603.141846,706.094849 602.045532,705.172302 601.956970,703.428711 
	C601.805786,700.451294 601.816650,697.465637 601.758667,693.990356 
M612.475769,686.381714 
	C610.242004,686.196899 608.508667,686.633301 608.577393,689.422791 
	C608.615784,690.978149 607.771790,693.065247 610.078003,693.500061 
	C612.653564,693.985779 615.742188,694.309875 616.980774,691.311523 
	C618.306519,688.101929 615.722229,687.081970 612.475769,686.381714 
z"/>
<path fill="#000000" opacity="1.000000" stroke="none" 
	d="
M801.054077,696.401794 
	C797.726501,704.369202 791.461914,707.750854 783.789429,706.076965 
	C777.732788,704.755676 773.615173,699.386658 773.698425,692.919128 
	C773.791260,685.711060 778.723877,680.855469 786.498352,680.319153 
	C794.143860,679.791687 800.399658,684.510559 801.203735,691.510315 
	C801.373047,692.984253 801.173706,694.500488 801.054077,696.401794 
M789.040161,700.478577 
	C790.294861,699.709717 791.754822,699.145691 792.765503,698.133179 
	C795.667297,695.226013 795.288086,690.700867 792.105469,688.061707 
	C788.967041,685.458801 784.409790,685.824768 781.886414,688.882263 
	C779.328186,691.981934 779.908447,696.572571 783.233032,698.943298 
	C784.728210,700.009521 786.382935,700.778625 789.040161,700.478577 
z"/>
<path fill="#000000" opacity="1.000000" stroke="none" 
	d="
M277.888550,696.492310 
	C275.527008,698.774353 276.009460,700.232483 278.897552,700.538330 
	C281.367462,700.799988 283.877472,700.677551 286.369324,700.740112 
	C288.098907,700.783447 289.197876,701.477905 289.204407,703.408630 
	C289.210724,705.280762 288.254639,706.181946 286.469574,706.192749 
	C281.817017,706.220947 277.164185,706.198425 272.511444,706.190308 
	C270.180786,706.186218 269.220734,704.752808 269.194366,702.682190 
	C269.116058,696.535156 269.124237,690.386841 269.133362,684.239014 
	C269.136963,681.816711 270.315643,680.628601 272.839386,680.670532 
	C277.159485,680.742371 281.481842,680.674133 285.803253,680.671448 
	C287.641449,680.670288 289.124084,681.108948 289.131714,683.380249 
	C289.139069,685.580750 287.769623,686.206055 285.889099,686.244690 
	C283.562988,686.292297 281.235992,686.302795 278.910370,686.365479 
	C277.667175,686.398926 276.540253,686.720764 276.429596,688.228699 
	C276.292847,690.091492 277.631042,690.416992 279.038391,690.465088 
	C281.029999,690.533264 283.026306,690.521973 285.019196,690.478943 
	C286.896820,690.438354 287.799225,691.374329 287.827393,693.174927 
	C287.854431,694.901550 287.110199,696.078796 285.242950,696.167664 
	C282.920258,696.278076 280.594208,696.317627 277.888550,696.492310 
z"/>
<path fill="#000000" opacity="1.000000" stroke="none" 
	d="
M544.312866,695.631287 
	C541.815735,696.022644 539.670349,696.187012 537.521851,696.276611 
	C535.772095,696.349548 533.947998,696.474731 533.971680,698.763489 
	C533.995239,701.046387 535.964844,700.541321 537.352173,700.611511 
	C539.508179,700.720642 541.671570,700.672485 543.831177,700.722412 
	C545.726562,700.766296 547.090759,701.459839 547.015503,703.641602 
	C546.949280,705.561279 545.685547,706.144470 544.005737,706.206299 
	C543.673584,706.218506 543.341187,706.246582 543.009338,706.241577 
	C523.121704,705.944641 527.131958,709.196777 526.822510,691.162170 
	C526.618896,679.297546 525.408081,680.855957 537.016296,680.658936 
	C539.175964,680.622253 541.337280,680.681763 543.497803,680.694031 
	C545.157104,680.703491 546.475403,681.092590 546.473083,683.147400 
	C546.470825,685.165283 545.561340,686.244202 543.483093,686.256958 
	C541.322876,686.270142 539.162231,686.293762 537.002930,686.355103 
	C535.586609,686.395325 534.255859,686.686523 534.267456,688.500854 
	C534.278198,690.189819 535.624939,690.110779 536.775879,690.201355 
	C538.265869,690.318542 539.766174,690.553101 541.248230,690.475159 
	C545.116821,690.271851 546.020020,692.000061 544.312866,695.631287 
z"/>
<path fill="#000000" opacity="1.000000" stroke="none" 
	d="
M241.911880,706.191528 
	C238.806976,706.307434 238.043381,704.656982 238.042038,702.384216 
	C238.038589,696.571289 238.120941,690.757812 238.061554,684.945679 
	C238.028870,681.747070 239.474930,680.482239 242.628738,680.648743 
	C245.609756,680.806091 248.616043,680.521912 251.592804,680.715271 
	C256.846802,681.056763 260.431305,684.605042 260.776978,689.523987 
	C261.076813,693.790588 258.166718,698.027832 253.329880,698.722290 
	C248.772949,699.376526 244.559525,699.533875 244.072968,705.461365 
	C244.049667,705.745178 242.944351,705.940063 241.911880,706.191528 
M250.633194,686.662903 
	C248.611069,686.519836 246.089081,685.377808 245.416687,688.506958 
	C245.063080,690.152527 244.459198,692.422913 246.638840,693.304382 
	C248.907120,694.221619 251.353607,693.791931 252.910614,691.762695 
	C254.519241,689.666260 253.244720,688.107544 250.633194,686.662903 
z"/>
<path fill="#000000" opacity="1.000000" stroke="none" 
	d="
M750.460388,681.364014 
	C753.393005,679.522400 756.063110,679.472717 757.527405,682.430908 
	C761.185059,689.820374 765.033081,697.146790 767.806519,705.301697 
	C764.744141,706.670410 762.460327,706.809875 760.314819,703.949829 
	C757.270935,699.891968 749.966187,699.928833 746.782288,704.032288 
	C744.857910,706.512329 742.869141,706.660645 739.835876,705.110840 
	C742.825623,697.046814 746.374878,689.285950 750.460388,681.364014 
M752.702271,690.942078 
	C752.224487,692.256470 751.065247,693.427490 751.846252,695.065979 
	C753.210754,695.815369 754.544983,695.877625 756.472229,694.425598 
	C754.946228,693.377075 756.485474,690.354858 752.702271,690.942078 
z"/>
<path fill="#000000" opacity="1.000000" stroke="none" 
	d="
M443.899780,700.921753 
	C446.519196,695.156128 449.001465,689.733337 451.439178,684.290649 
	C452.466125,681.997742 453.837372,680.585754 456.680237,680.627197 
	C459.430573,680.667236 460.407410,682.313477 461.313812,684.348022 
	C464.383789,691.238770 467.460999,698.126404 470.604980,705.170959 
	C466.892242,706.737610 464.689972,706.343445 462.613342,703.538452 
	C459.949921,699.940796 452.259949,700.114197 449.761017,703.845276 
	C447.801056,706.771606 445.591797,706.417542 443.130371,705.747070 
	C442.118652,703.848450 443.290680,702.617737 443.899780,700.921753 
M457.543732,692.020630 
	C457.177094,691.344177 457.085663,690.428589 455.970917,690.295593 
	C454.906738,691.518677 454.181519,692.876892 454.494507,694.919617 
	C456.513855,695.409973 458.814819,696.646179 457.543732,692.020630 
z"/>
<path fill="#000000" opacity="1.000000" stroke="none" 
	d="
M732.750488,701.298950 
	C728.388000,706.690796 718.357727,708.011780 713.082947,704.318726 
	C711.591980,703.274902 711.086304,702.198059 712.031799,700.567261 
	C713.072754,698.771851 714.456055,698.687195 716.283203,699.372864 
	C719.275879,700.495972 722.373779,701.991760 725.604065,699.141479 
	C724.088135,696.596375 721.599304,696.687195 719.468140,696.138184 
	C715.272339,695.057312 711.718933,693.083130 711.989746,688.198853 
	C712.261658,683.294922 715.748352,681.226257 720.309753,680.359619 
	C723.234802,679.803894 725.957214,680.440125 728.676025,681.081421 
	C730.369324,681.480774 732.410828,682.105225 731.680115,684.743469 
	C731.001587,687.192993 729.538208,687.812622 727.141174,687.005737 
	C724.645935,686.165710 722.046326,685.394836 719.538940,687.646973 
	C720.816833,691.389587 724.406006,690.724915 726.972107,691.633240 
	C731.512268,693.240479 734.122070,695.792908 732.750488,701.298950 
z"/>
<path fill="#000000" opacity="1.000000" stroke="none" 
	d="
M370.841339,682.582520 
	C374.617950,679.437683 377.379608,679.871521 379.318512,684.166077 
	C382.448395,691.098389 385.632843,698.005981 388.911621,705.180847 
	C385.227020,706.922119 382.974854,706.482422 380.810486,703.481201 
	C378.218414,699.886902 370.382965,700.076782 367.864349,703.776184 
	C365.936707,706.607666 363.749542,706.560608 360.372772,705.554138 
	C363.257385,697.575684 366.898315,690.226868 370.841339,682.582520 
M372.943176,691.792358 
	C372.385742,693.168213 371.654785,694.639832 373.688538,695.405090 
	C374.600311,695.748108 375.711823,695.737549 376.271423,694.728088 
	C377.008423,693.398682 376.128906,692.197327 375.588684,691.074829 
	C374.788818,689.412842 373.930847,689.957092 372.943176,691.792358 
z"/>
<path fill="#000000" opacity="1.000000" stroke="none" 
	d="
M641.053467,680.675049 
	C644.531372,680.695435 647.521851,680.730469 650.512268,680.732178 
	C652.644836,680.733337 653.421692,681.885071 653.401245,683.884338 
	C653.379822,685.982910 652.006409,686.260925 650.384521,686.281372 
	C647.892761,686.312805 645.400635,686.327637 642.909302,686.379333 
	C641.364380,686.411438 640.318726,687.052124 640.449036,688.779541 
	C640.567383,690.349121 641.780701,690.489380 642.984192,690.537415 
	C644.810181,690.610229 646.637939,690.640076 648.464478,690.701477 
	C650.198730,690.759705 651.908875,690.888855 651.952576,693.246704 
	C652.000305,695.822327 650.210571,696.123291 648.251282,696.171143 
	C646.590393,696.211670 644.928345,696.209351 643.267944,696.261658 
	C641.839294,696.306763 640.531311,696.648193 640.496521,698.409607 
	C640.462097,700.156616 641.693176,700.615723 643.160461,700.644531 
	C645.818115,700.696655 648.476746,700.702209 651.134583,700.747009 
	C652.872192,700.776306 654.010376,701.519531 654.012817,703.408203 
	C654.015198,705.276367 652.876709,706.130981 651.167053,706.150696 
	C646.350586,706.206238 641.532593,706.210327 636.716064,706.155396 
	C634.696289,706.132385 633.741211,704.916138 633.737671,702.941650 
	C633.726196,696.628296 633.580750,690.310547 633.768555,684.002930 
	C633.918335,678.972900 638.035400,681.270996 641.053467,680.675049 
z"/>
<path fill="#000000" opacity="1.000000" stroke="none" 
	d="
M588.528992,697.904541 
	C586.393494,698.477417 584.623230,699.177002 582.850647,699.182739 
	C579.543518,699.193359 576.896057,699.455444 577.026855,703.824280 
	C577.081909,705.663879 575.468750,706.154602 573.804871,706.112061 
	C572.069031,706.067688 570.840820,705.305115 570.824951,703.485107 
	C570.765625,696.681274 570.758240,689.876099 570.834412,683.072571 
	C570.856323,681.113525 572.416870,680.755737 574.012878,680.732117 
	C577.000916,680.687866 579.989807,680.654480 582.977966,680.672729 
	C587.498901,680.700317 591.174744,682.167175 592.652161,686.879272 
	C594.060486,691.371094 592.802429,695.026306 588.528992,697.904541 
M581.982727,693.628296 
	C584.340332,693.069519 586.858765,692.253113 586.004089,689.232605 
	C585.278259,686.667542 582.772644,686.252686 580.282471,686.378601 
	C577.837219,686.502319 577.427307,688.040649 577.301941,690.075684 
	C577.120667,693.017029 578.604614,693.906372 581.982727,693.628296 
z"/>
<path fill="#000000" opacity="1.000000" stroke="none" 
	d="
M892.265747,695.740356 
	C871.575012,696.834412 851.157776,697.701538 830.740723,698.575562 
	C828.421265,698.674866 826.104065,698.893494 823.784729,698.911621 
	C821.143127,698.932312 819.924072,697.552551 819.881958,694.862549 
	C819.838623,692.101746 821.097473,690.795288 823.762756,690.916626 
	C828.077515,691.113098 832.384277,691.489990 836.699341,691.674316 
	C853.967346,692.412048 871.238586,693.076477 888.504089,693.866943 
	C889.910034,693.931335 892.025696,692.979431 892.265747,695.740356 
z"/>
<path fill="#000000" opacity="1.000000" stroke="none" 
	d="
M342.747406,700.506836 
	C345.859467,699.454956 346.866669,697.336975 346.883331,694.595642 
	C346.903534,691.264771 346.934601,687.933472 346.902161,684.602966 
	C346.876617,681.977112 347.859650,680.565552 350.740326,680.687134 
	C353.428101,680.800476 353.493774,682.477173 353.454285,684.452881 
	C353.370972,688.615906 353.493683,692.787781 353.273712,696.942322 
	C352.967255,702.730225 349.242340,706.040771 343.063599,706.318237 
	C336.209808,706.625977 331.440338,703.611938 330.857788,697.960144 
	C330.364563,693.175415 330.651215,688.311401 330.568665,683.482788 
	C330.530212,681.236206 331.842743,680.691711 333.785309,680.701965 
	C335.744690,680.712341 337.051727,681.409363 337.082611,683.531738 
	C337.135925,687.194458 337.050720,690.859741 337.143005,694.520996 
	C337.228485,697.911621 338.621704,700.297424 342.747406,700.506836 
z"/>
<path fill="#000000" opacity="1.000000" stroke="none" 
	d="
M159.764984,693.671265 
	C177.339966,692.710999 194.438843,691.716370 211.544754,690.862183 
	C213.969986,690.741028 217.131058,689.839294 217.320068,694.234680 
	C217.467468,697.662659 216.282654,699.148010 212.765854,698.963196 
	C196.330109,698.099670 179.893112,697.243835 163.449432,696.555786 
	C157.369278,696.301453 151.269562,696.514648 145.126099,695.452515 
	C149.704971,693.283447 154.548187,693.884949 159.764984,693.671265 
z"/>
<path fill="#000000" opacity="1.000000" stroke="none" 
	d="
M312.792572,706.352661 
	C301.483948,706.192383 295.802979,700.098572 297.622070,690.568604 
	C299.388794,681.312866 312.453278,676.646118 319.890381,682.613403 
	C321.082886,683.570251 322.464111,684.519287 321.119019,686.258789 
	C320.085205,687.595764 318.904633,688.853088 316.915741,688.090637 
	C315.520294,687.555725 314.178589,686.761169 312.736481,686.491943 
	C309.477356,685.883362 306.718689,686.993652 305.079590,689.913208 
	C303.556183,692.626648 303.887207,695.475159 305.885345,697.841736 
	C307.981750,700.324707 310.648895,701.449829 313.896820,699.981323 
	C314.806519,699.570007 315.680756,699.074524 316.605957,698.704346 
	C318.802856,697.825317 320.193329,699.139587 321.103394,700.777039 
	C322.090179,702.552490 320.550018,703.516479 319.311951,704.333191 
	C317.482422,705.539978 315.475830,706.331970 312.792572,706.352661 
z"/>
<path fill="#000000" opacity="1.000000" stroke="none" 
	d="
M666.526001,703.681885 
	C661.015503,697.959534 660.142029,690.612305 664.069397,685.380920 
	C667.777100,680.442139 676.883057,678.643616 682.722168,681.822754 
	C684.343567,682.705566 686.861450,683.487488 685.380981,686.181396 
	C684.174683,688.376404 682.259033,689.012451 679.893005,687.632812 
	C679.044006,687.137756 678.064514,686.780701 677.099182,686.586548 
	C673.816956,685.926514 671.180359,687.020447 669.390930,689.854919 
	C667.654785,692.605103 668.070312,695.432983 670.062561,697.724060 
	C672.118958,700.088989 674.752563,701.221191 678.090332,699.908447 
	C682.999451,697.977539 683.040649,698.082275 685.660950,701.727356 
	C681.038940,707.255554 675.120117,707.944153 666.526001,703.681885 
z"/>
<path fill="#000000" opacity="1.000000" stroke="none" 
	d="
M315.021057,473.122070 
	C310.946533,470.744598 309.044434,467.692352 310.917603,463.377441 
	C312.414398,459.929474 315.277313,458.396210 319.012970,458.929199 
	C323.494049,459.568542 326.003357,463.122803 325.284607,467.548218 
	C324.582092,471.873566 320.963837,473.959198 315.021057,473.122070 
z"/>
<path fill="#000000" opacity="1.000000" stroke="none" 
	d="
M434.462799,682.304077 
	C434.622284,689.147949 434.646698,695.591492 434.683411,702.035034 
	C434.695312,704.126587 434.641693,706.068665 431.753052,706.198975 
	C428.894226,706.327881 427.909851,704.777771 427.885590,702.253357 
	C427.831604,696.629639 427.728333,691.004639 427.797272,685.382019 
	C427.858124,680.422424 429.359711,679.675659 434.462799,682.304077 
z"/>
<path fill="#000000" opacity="1.000000" stroke="none" 
	d="
M695.648010,701.783813 
	C695.608337,695.668884 695.597717,690.026306 695.526184,684.384583 
	C695.500610,682.372925 695.700989,680.768738 698.335327,680.712830 
	C700.811157,680.660339 702.111084,681.624756 702.112366,684.146729 
	C702.115356,690.120667 702.133118,696.094727 702.098267,702.068481 
	C702.085876,704.187866 701.733459,706.088989 698.923584,706.138977 
	C696.162598,706.188110 695.605530,704.507446 695.648010,701.783813 
z"/>
<path fill="#000000" opacity="1.000000" stroke="none" 
	d="
M758.885803,673.054688 
	C761.328186,676.972778 759.971008,679.377869 755.623840,679.281250 
	C753.993896,679.245056 752.381653,678.678040 750.748291,678.444397 
	C749.332458,678.241821 747.841125,679.471863 746.213257,678.032288 
	C746.624878,674.720093 748.178345,672.370483 751.921936,673.660278 
	C754.459351,674.534485 756.384338,673.664795 758.885803,673.054688 
z"/>
<path fill="#000000" opacity="1.000000" stroke="none" 
	d="
M377.001312,678.374756 
	C375.143738,679.342651 373.602509,679.695251 372.093384,678.505310 
	C373.319855,673.192444 375.950500,671.561646 381.325287,673.004211 
	C381.133972,675.627808 378.803375,676.601624 377.001312,678.374756 
z"/>
</svg>